<svg width="20" height="22" viewBox="0 0 20 22" fill="none" xmlns="http://www.w3.org/2000/svg">
<path d="M18.7295 14.7271V6.72712C18.7291 6.3764 18.6365 6.03193 18.461 5.72828C18.2855 5.42464 18.0332 5.17248 17.7295 4.99712L10.7295 0.997121C10.4255 0.821584 10.0806 0.729172 9.72949 0.729172C9.37842 0.729172 9.03353 0.821584 8.72949 0.997121L1.72949 4.99712C1.42575 5.17248 1.17347 5.42464 0.997954 5.72828C0.822435 6.03193 0.729852 6.3764 0.729492 6.72712V14.7271C0.729852 15.0778 0.822435 15.4223 0.997954 15.726C1.17347 16.0296 1.42575 16.2818 1.72949 16.4571L8.72949 20.4571C9.03353 20.6327 9.37842 20.7251 9.72949 20.7251C10.0806 20.7251 10.4255 20.6327 10.7295 20.4571L17.7295 16.4571C18.0332 16.2818 18.2855 16.0296 18.461 15.726C18.6365 15.4223 18.7291 15.0778 18.7295 14.7271Z" stroke="#4A5568" stroke-width="1.45833" stroke-linecap="round" stroke-linejoin="round"/>
</svg>
