<svg width="16" height="16" viewBox="0 0 16 16" fill="none" xmlns="http://www.w3.org/2000/svg">
<path d="M8 13.3333H12.2667C12.64 13.3333 12.827 13.3333 12.9696 13.2607C13.095 13.1967 13.1965 13.0948 13.2604 12.9693C13.3331 12.8267 13.3333 12.64 13.3333 12.2666V9.06665C13.3333 8.69328 13.3331 8.50662 13.2604 8.36401C13.1965 8.23857 13.095 8.13658 12.9696 8.07266C12.827 8 12.6398 8 12.2664 8H9.06641M8 13.3333V9.06665M8 13.3333H3.73307C3.3597 13.3333 3.17321 13.3333 3.0306 13.2607C2.90516 13.1967 2.80324 13.0948 2.73933 12.9693C2.66667 12.8267 2.66667 12.64 2.66667 12.2666V9.06665C2.66667 8.69328 2.66667 8.50662 2.73933 8.36401C2.80324 8.23857 2.90516 8.13658 3.0306 8.07266C3.17321 8 3.3597 8 3.73307 8H6.93307M8 9.06665C8 8.69328 8 8.50662 8.07266 8.36401C8.13658 8.23857 8.23849 8.13658 8.36393 8.07266C8.50654 8 8.69304 8 9.06641 8M8 9.06665C8 8.69328 7.99975 8.50662 7.92708 8.36401C7.86317 8.23857 7.7617 8.13658 7.63625 8.07266C7.49365 8 7.30644 8 6.93307 8M9.06641 8H12.9331C13.3064 8 13.4936 7.99999 13.6363 7.92733C13.7617 7.86341 13.8632 7.76145 13.9271 7.63601C13.9997 7.4934 14 7.30669 14 6.93332V6.39998C14 6.02662 13.9997 5.83995 13.9271 5.69735C13.8632 5.57191 13.7617 5.46991 13.6363 5.406C13.4936 5.33333 13.3064 5.33333 12.9331 5.33333H9.06641C8.69304 5.33333 8.50654 5.33333 8.36393 5.406C8.23849 5.46991 8.13658 5.57191 8.07266 5.69735C8 5.83995 8 6.02662 8 6.39998M9.06641 8C8.69304 8 8.50654 7.99999 8.36393 7.92733C8.23849 7.86341 8.13658 7.76145 8.07266 7.63601C8 7.4934 8 7.30669 8 6.93332M6.93307 8H3.06641C2.69304 8 2.50654 7.99999 2.36393 7.92733C2.23849 7.86341 2.13658 7.76145 2.07266 7.63601C2 7.4934 2 7.30669 2 6.93332V6.39998C2 6.02662 2 5.83995 2.07266 5.69735C2.13658 5.57191 2.23849 5.46991 2.36393 5.406C2.50654 5.33333 2.69304 5.33333 3.06641 5.33333H6.93307C7.30644 5.33333 7.49365 5.33333 7.63625 5.406C7.7617 5.46991 7.86317 5.57191 7.92708 5.69735C7.99975 5.83995 8 6.02662 8 6.39998M6.93307 8C7.30644 8 7.49365 7.99999 7.63625 7.92733C7.7617 7.86341 7.86317 7.76145 7.92708 7.63601C7.99975 7.4934 8 7.30669 8 6.93332M8 6.93332V6.39998M8 3.66667V5.33333M8 3.66667C8 2.74619 8.74619 2 9.66667 2C10.5871 2 11.3333 2.74619 11.3333 3.66667C11.3333 4.58714 10.5871 5.33333 9.66667 5.33333H8M8 3.66667C8 2.74619 7.25381 2 6.33333 2C5.41286 2 4.66667 2.74619 4.66667 3.66667C4.66667 4.58714 5.41286 5.33333 6.33333 5.33333H8" stroke="#003459" stroke-linecap="round" stroke-linejoin="round"/>
</svg>
