<svg width="116" height="40" viewBox="0 0 116 40" fill="none" xmlns="http://www.w3.org/2000/svg">
<path d="M32.5002 32.6316C33.1423 32.6316 33.6739 32.8491 34.1003 33.2787C34.5372 33.7083 34.7477 34.244 34.7477 34.8805C34.7477 35.5169 34.5372 36.042 34.1003 36.4823C33.6739 36.9119 33.1423 37.1293 32.5002 37.1293H31.1159V39.4737H30V32.6369H32.5002V32.6316ZM32.5002 36.0686C33.1581 36.0686 33.6318 35.57 33.6318 34.8752C33.6318 34.1803 33.1581 33.6818 32.5002 33.6818H31.1159V36.0633H32.5002V36.0686Z" fill="#103559"/>
<path d="M36.4271 37.5163C36.5885 38.2014 37.2173 38.5782 38.0687 38.5782C38.653 38.5782 39.0926 38.3873 39.3931 38.0203L40.3057 38.4901C39.8048 39.1458 39.0536 39.4737 38.0631 39.4737C37.234 39.4737 36.5551 39.2486 36.0432 38.8082C35.5312 38.358 35.2753 37.7903 35.2753 37.1053C35.2753 36.4202 35.5312 35.8721 36.0321 35.4219C36.5329 34.9619 37.1895 34.7368 37.9797 34.7368C38.7253 34.7368 39.343 34.9717 39.8215 35.4317C40.3057 35.8917 40.5505 36.4593 40.5505 37.1151C40.5505 37.2129 40.5394 37.3499 40.5115 37.5212H36.4327L36.4271 37.5163ZM39.432 36.7236C39.2762 35.9945 38.6919 35.6128 37.9685 35.6128C37.1505 35.6128 36.5774 36.0385 36.4216 36.7236H39.432Z" fill="#103559"/>
<path d="M43.7156 35.5461H42.5047V37.897C42.5047 38.5247 42.9136 38.514 43.7156 38.4768V39.4289C42.1011 39.6257 41.4479 39.1842 41.4479 37.9024V35.5514H40.5504V34.5302H41.4479V33.4717L42.5047 33.1579V34.5302H43.7156V35.5514V35.5461Z" fill="#103559"/>
<path d="M46.3179 36.6815C47.0313 36.8334 47.9556 37.1224 47.9355 38.0874C47.9355 38.5185 47.7597 38.8614 47.4181 39.1063C47.0765 39.3512 46.6495 39.4737 46.132 39.4737C45.2177 39.4737 44.5396 39.0769 44.2432 38.4205L45.1022 37.9356C45.2579 38.3666 45.5995 38.5871 46.127 38.5871C46.6545 38.5871 46.9157 38.4156 46.9157 38.0825C46.9157 37.7935 46.5289 37.6221 46.0366 37.5045C45.3433 37.333 44.4089 37.0636 44.429 36.1133C44.429 35.697 44.5848 35.3639 44.9113 35.114C45.2328 34.8593 45.6447 34.7368 46.122 34.7368C46.8906 34.7368 47.5085 35.0895 47.835 35.6774L46.9911 36.1378C46.8353 35.7949 46.5389 35.6235 46.122 35.6235C45.7452 35.6235 45.4488 35.7851 45.4488 36.1035C45.4488 36.4023 45.8356 36.5542 46.3179 36.6913V36.6815Z" fill="#103559"/>
<path d="M54.2661 33.6377C53.435 33.57 53.0308 33.8876 53.0308 34.5852V34.6789H54.2661V35.6785H53.0308V39.4737H51.8979V35.6785H51.101V34.6789H51.8979V34.5852C51.8979 33.2733 52.7177 32.5548 54.2661 32.6381V33.6377Z" fill="#103559"/>
<path d="M55.5642 38.7886C55.0541 38.3286 54.7936 37.7708 54.7936 37.1053C54.7936 36.4398 55.0541 35.8819 55.5642 35.4219C56.0744 34.9619 56.704 34.7368 57.4312 34.7368C58.1584 34.7368 58.788 34.9619 59.2981 35.4219C59.8083 35.8819 60.0688 36.4398 60.0688 37.1053C60.0688 37.7708 59.8083 38.3286 59.2981 38.7886C58.788 39.2486 58.1693 39.4737 57.4312 39.4737C56.6931 39.4737 56.0744 39.2486 55.5642 38.7886ZM57.4312 38.5293C57.8708 38.5293 58.2398 38.3922 58.5383 38.1231C58.8368 37.854 58.9888 37.5114 58.9888 37.1053C58.9888 36.6991 58.8368 36.3566 58.5383 36.0874C58.2398 35.8183 57.8708 35.6813 57.4312 35.6813C56.9916 35.6813 56.6225 35.8183 56.324 36.0874C56.0256 36.3566 55.8736 36.6991 55.8736 37.1053C55.8736 37.5114 56.0256 37.854 56.324 38.1231C56.6225 38.3922 56.9916 38.5293 57.4312 38.5293Z" fill="#103559"/>
<path d="M61.683 35.6013C61.9561 35.025 62.4803 34.7368 63.2339 34.7368V35.8237C62.8244 35.7934 62.4585 35.8895 62.1472 36.1018C61.8359 36.3091 61.683 36.6528 61.683 37.128V39.4737H60.5963V34.8177H61.683V35.6013Z" fill="#103559"/>
<path d="M71.1468 37.5203C71.1468 38.0777 70.9597 38.5448 70.5805 38.9163C70.2013 39.2879 69.7411 39.4737 69.1951 39.4737H66.399V32.6316H68.9878C69.5187 32.6316 69.9737 32.8174 70.3378 33.1783C70.7119 33.5393 70.8939 33.9905 70.8939 34.5266C70.8939 35.1211 70.6715 35.5829 70.2316 35.9226C70.7979 36.2358 71.1417 36.8037 71.1417 37.515L71.1468 37.5203ZM67.4709 33.6879V35.4873H68.9878C69.4631 35.4873 69.8271 35.0945 69.8271 34.5903C69.8271 34.086 69.4631 33.6932 68.9878 33.6932H67.4709V33.6879ZM69.1951 38.4174C69.6906 38.4174 70.0799 37.9981 70.0799 37.4619C70.0799 36.9258 69.6906 36.5065 69.1951 36.5065H67.4709V38.4227H69.1951V38.4174Z" fill="#103559"/>
<path d="M73.3524 37.5163C73.5136 38.2014 74.1418 38.5782 74.9923 38.5782C75.5759 38.5782 76.0151 38.3873 76.3152 38.0203L77.2269 38.4901C76.7266 39.1458 75.9762 39.4737 74.9867 39.4737C74.1585 39.4737 73.4803 39.2486 72.9689 38.8082C72.4575 38.358 72.2018 37.7903 72.2018 37.1053C72.2018 36.4202 72.4575 35.8721 72.9578 35.4219C73.4581 34.9619 74.114 34.7368 74.9033 34.7368C75.6482 34.7368 76.2652 34.9717 76.7488 35.4317C77.2324 35.8917 77.477 36.4593 77.477 37.1151C77.477 37.2129 77.4659 37.3499 77.4381 37.5212H73.3636L73.3524 37.5163ZM76.3542 36.7236C76.1985 35.9945 75.6148 35.6128 74.8922 35.6128C74.0751 35.6128 73.5025 36.0385 73.3469 36.7236H76.3597H76.3542Z" fill="#103559"/>
<path d="M79.5518 36.6815C80.2651 36.8334 81.1895 37.1224 81.1694 38.0874C81.1694 38.5185 80.9936 38.8614 80.652 39.1063C80.3104 39.3512 79.8834 39.4737 79.3659 39.4737C78.4516 39.4737 77.7734 39.0769 77.4771 38.4205L78.3361 37.9356C78.4918 38.3666 78.8334 38.5871 79.3609 38.5871C79.8884 38.5871 80.1496 38.4156 80.1496 38.0825C80.1496 37.7935 79.7628 37.6221 79.2705 37.5045C78.5772 37.333 77.6428 37.0636 77.6629 36.1133C77.6629 35.697 77.8187 35.3639 78.1452 35.114C78.4667 34.8593 78.8786 34.7368 79.3559 34.7368C80.1245 34.7368 80.7424 35.0895 81.0689 35.6774L80.225 36.1378C80.0692 35.7949 79.7728 35.6235 79.3559 35.6235C78.9791 35.6235 78.6827 35.7851 78.6827 36.1035C78.6827 36.4023 79.0695 36.5542 79.5518 36.6913V36.6815Z" fill="#103559"/>
<path d="M84.8624 35.5461H83.6536V37.897C83.6536 38.5247 84.0618 38.514 84.8624 38.4768V39.4289C83.2507 39.6257 82.5986 39.1842 82.5986 37.9024V35.5514H81.6973V34.5302H82.5986V33.4717L83.6536 33.1579V34.5302H84.8624V35.5514V35.5461Z" fill="#103559"/>
<path d="M24.9886 3.21448C24.8505 1.85322 24.3036 1.57886 23.2416 1.57886H18.7175C17.7246 1.57886 17.4856 1.7477 17.1086 2.83987L13.7156 13.8724L10.3226 2.83987C9.94555 1.7477 9.7066 1.57886 8.71364 1.57886H4.18428C3.12229 1.57886 2.57537 1.85322 2.43731 3.21448L0.0372224 24.8732C-0.0636662 25.6541 0.00536284 25.9654 0.690344 26.0656L5.86752 26.8149C6.65339 26.9151 6.82862 26.7463 6.92951 26.1659L8.06052 16.0198L10.4925 25.5222C10.7314 26.3031 11.0394 26.6144 11.8306 26.6144H15.6006C16.3865 26.6144 16.6998 26.3083 16.9387 25.5222L19.3388 16.0198L20.5017 26.1659C20.6026 26.7463 20.7778 26.9151 21.5637 26.8149L26.7409 26.0656C27.4258 25.9654 27.4949 25.6594 27.394 24.8732L24.9886 3.21448Z" fill="#103559"/>
<path d="M40.34 17.252V9C40.34 8.44772 40.7877 8 41.34 8H46C46.5523 8 47 8.44772 47 9V25C47 25.5523 46.5523 26 46 26H40.7768C40.5355 26 40.34 25.8045 40.34 25.5632C40.34 25.1418 39.7608 24.9344 39.4394 25.207C38.4196 26.0717 37.1222 26.504 35.516 26.504C31.592 26.504 29 23.768 29 18.404V9C29 8.44772 29.4477 8 30 8H34.66C35.2123 8 35.66 8.44772 35.66 9V17.684C35.66 19.304 36.416 20.096 37.892 20.096C39.476 20.096 40.34 19.016 40.34 17.252Z" fill="#103559"/>
<path d="M60.4518 7.37893C59.2608 7.37893 50.349 7.61557 49.7693 8.43068C49.5321 8.70414 49.5321 9.07751 49.5321 9.71908L49.8062 24.5173C49.8378 25.874 50.1487 26.3158 51.3345 26.3158H55.4874C56.6784 26.3158 57.0157 25.874 57.0157 24.5173V14.2995C57.5269 14.1312 57.6956 14.0628 58.2753 14.026C59.0553 13.9945 59.4294 14.2311 59.6719 14.8727C59.8405 15.5511 59.8774 16.5713 59.8774 17.9596L59.8458 24.512C59.8458 25.8688 60.22 26.3105 61.411 26.3105H65.664C66.8551 26.3105 67.1607 25.8688 67.1924 24.512L67.4664 15.4827C67.498 13.274 67.0237 11.2389 65.9012 9.74537C64.7101 8.25188 62.9394 7.36841 60.4571 7.36841L60.4518 7.37893Z" fill="#103559"/>
<path d="M76.414 9.47363H72.1391C70.9695 9.47363 70.6331 9.877 70.6331 11.2338V24.5241C70.6331 25.8757 70.9695 26.3157 72.1391 26.3157H76.4813C77.6509 26.3157 78.0184 25.8757 78.0184 24.5241L77.9511 11.2338C77.9511 9.91367 77.5836 9.47363 76.414 9.47363Z" fill="#103559"/>
<path d="M74.5895 0.526306C72.0576 0.526306 70.6331 2.08541 70.6331 4.21052C70.6331 6.33563 72.0576 7.89473 74.5895 7.89473C77.1214 7.89473 78.5459 6.33563 78.5459 4.21052C78.5459 2.08541 77.1214 0.526306 74.5895 0.526306Z" fill="#103559"/>
<path d="M92.9469 7.91969H90.3173V3.34406C90.3173 1.98871 89.9692 1.57895 88.7642 1.57895H84.6833C83.4729 1.57895 83.0927 2.02023 83.0927 3.34406V7.91969H81.0201C79.8793 7.91969 79.6008 8.12457 79.6008 9.17523V12.8736C79.6008 13.9242 79.8793 14.1291 81.0201 14.1291H83.0927V20.5697C83.0927 24.9089 85.4063 26.8421 89.7657 26.8421C91.0457 26.8421 92.3256 26.7423 93.536 26.5006C94.0555 26.4008 94.1947 26.2642 94.1947 25.7547L94.0234 20.5644C94.0234 20.1231 93.7824 19.955 93.3325 20.0548C92.9522 20.1546 92.572 20.2229 92.0525 20.2229C91.051 20.2229 90.3227 19.8815 90.3227 18.4263V14.1186H92.9522C94.093 14.1186 94.3715 13.9137 94.3715 12.8631V9.16473C94.3715 8.11406 94.093 7.90918 92.9522 7.90918L92.9469 7.91969Z" fill="#103559"/>
<path d="M104.394 7.36841C98.5842 7.36841 95.4265 11.3508 95.4265 16.8421C95.4265 22.3334 98.5842 26.3158 104.394 26.3158C110.205 26.3158 113.362 22.3334 113.362 16.8421C113.362 11.3508 110.205 7.36841 104.394 7.36841ZM104.394 20.1193C103 20.1193 102.252 18.8125 102.252 16.8369C102.252 14.8613 103 13.5546 104.394 13.5546C105.789 13.5546 106.536 14.8613 106.536 16.8369C106.536 18.8125 105.789 20.1193 104.394 20.1193Z" fill="#103559"/>
<path d="M115.03 8.11046C114.421 7.67071 113.422 7.92479 112.792 8.67725C112.161 9.42972 112.145 10.3972 112.75 10.8369C113.359 11.2767 114.358 11.0226 114.988 10.2701C115.619 9.51767 115.634 8.55021 115.03 8.11046Z" fill="#103559"/>
<path d="M100.685 6.83118C101.401 6.72115 101.871 5.81473 101.733 4.80352C101.594 3.79232 100.907 3.0588 100.191 3.16882C99.4744 3.27885 99.005 4.18527 99.1433 5.19648C99.2817 6.20769 99.9685 6.94121 100.685 6.83118Z" fill="#103559"/>
<path d="M109.969 7.76093C110.96 8.26132 112.461 7.31493 113.315 5.64516C114.169 3.97538 114.06 2.21314 113.063 1.71276C112.072 1.21237 110.571 2.15875 109.717 3.82853C108.863 5.4983 108.972 7.26054 109.969 7.76093Z" fill="#103559"/>
<path d="M104.837 6.30726C105.836 6.4344 106.805 5.12591 106.998 3.38834C107.191 1.64546 106.538 0.135674 105.534 0.0085342C104.535 -0.118606 103.566 1.18988 103.373 2.92745C103.18 4.67033 103.833 6.18012 104.837 6.30726Z" fill="#103559"/>
</svg>
