<svg width="19" height="19" viewBox="0 0 19 19" fill="none" xmlns="http://www.w3.org/2000/svg">
<g clip-path="url(#clip0_2208_6817)">
<path d="M5.90461 17.0096C12.9856 17.0096 16.8597 11.1417 16.8597 6.05457C16.8597 5.8896 16.856 5.72097 16.8487 5.55601C17.6023 5.011 18.2527 4.33593 18.7692 3.56251C18.0674 3.87479 17.3222 4.07873 16.5591 4.16738C17.3625 3.68577 17.9641 2.92919 18.2523 2.03788C17.4965 2.48583 16.6699 2.80182 15.8079 2.97231C15.2272 2.35523 14.4593 1.94665 13.6231 1.80974C12.7868 1.67283 11.9288 1.81522 11.1816 2.21488C10.4344 2.61455 9.83961 3.24923 9.48929 4.02081C9.13897 4.79238 9.05258 5.65788 9.24348 6.48347C7.71297 6.40667 6.21569 6.00909 4.8487 5.3165C3.48171 4.62391 2.27553 3.65178 1.30835 2.46312C0.816774 3.31065 0.666352 4.31355 0.887652 5.26801C1.10895 6.22246 1.68537 7.05684 2.49975 7.60156C1.88836 7.58215 1.29037 7.41754 0.755168 7.12134V7.16899C0.75462 8.05841 1.0621 8.92057 1.62534 9.60892C2.18859 10.2973 2.97283 10.7693 3.84476 10.9448C3.2784 11.0998 2.68399 11.1224 2.10751 11.0108C2.35355 11.7757 2.83226 12.4447 3.47682 12.9245C4.12139 13.4042 4.89965 13.6708 5.70299 13.6869C4.33915 14.7582 2.65442 15.3393 0.920132 15.3365C0.612571 15.3361 0.305312 15.3172 0 15.2801C1.76185 16.4104 3.81135 17.0107 5.90461 17.0096Z" fill="#99A2A5"/>
</g>
<defs>
<clipPath id="clip0_2208_6817">
<rect width="18.7692" height="18.7692" fill="white"/>
</clipPath>
</defs>
</svg>
