<svg width="19" height="14" viewBox="0 0 19 14" fill="none" xmlns="http://www.w3.org/2000/svg">
<path d="M18.5823 2.84838C18.5823 2.84838 18.399 1.55433 17.8344 0.986118C17.1196 0.238281 16.3204 0.234615 15.9538 0.190625C13.3291 -1.04881e-07 9.38828 0 9.38828 0H9.38095C9.38095 0 5.44014 -1.04881e-07 2.81538 0.190625C2.4488 0.234615 1.64964 0.238281 0.934796 0.986118C0.370252 1.55433 0.190625 2.84838 0.190625 2.84838C0.190625 2.84838 0 4.36971 0 5.88738V7.30973C0 8.8274 0.186959 10.3487 0.186959 10.3487C0.186959 10.3487 0.370252 11.6428 0.93113 12.211C1.64597 12.9588 2.58444 12.9332 3.00234 13.0138C4.50535 13.1568 9.38461 13.2008 9.38461 13.2008C9.38461 13.2008 13.3291 13.1934 15.9538 13.0065C16.3204 12.9625 17.1196 12.9588 17.8344 12.211C18.399 11.6428 18.5823 10.3487 18.5823 10.3487C18.5823 10.3487 18.7692 8.83107 18.7692 7.30973V5.88738C18.7692 4.36971 18.5823 2.84838 18.5823 2.84838ZM7.44537 9.03636V3.76118L12.5153 6.40793L7.44537 9.03636Z" fill="#99A2A5"/>
</svg>
